<svg
  width="208"
  height="41"
  viewBox="0 0 208 41"
  fill="none"
  xmlns="http://www.w3.org/2000/svg"
>
  <mask
    id="mask0_54_4304"
    style="mask-type: luminance"
    maskUnits="userSpaceOnUse"
    x="0"
    y="0"
    width="209"
    height="41"
  >
    <path d="M0 0.5H208.001V40.5H0V0.5Z" fill="white" />
  </mask>
  <g mask="url(#mask0_54_4304)">
    <path
      d="M41.7435 18.9944C44.3406 18.9944 45.5377 17.827 45.5377 16.2803C45.5377 15.842 45.3624 15.4045 45.0415 15.0835C44.5742 14.6163 43.7571 14.4413 42.9982 14.4413H41.7138L40.5174 18.9944H41.7435ZM36.3726 8.98347H43.2315C46.9967 8.98347 49.3026 9.71298 50.8206 11.2307C51.9004 12.3108 52.4259 13.7408 52.4259 15.3461C52.4259 20.4537 48.5727 23.8684 42.0934 23.8684H39.204L37.7157 29.4139H30.8857L36.3726 8.98347Z"
      fill="#F25D19"
    />
    <path
      d="M55.7798 8.98333H73.2049L71.6868 14.5872H60.9754L60.4209 16.6594H70.4024L69.0891 21.5917H59.1075L58.4946 23.8102H69.3517L67.8636 29.4141H50.293L55.7798 8.98333Z"
      fill="#F25D19"
    />
    <path
      d="M75.4204 8.98333H92.8455L91.3275 14.5872H80.616L80.0615 16.6594H90.0431L88.7297 21.5917H78.7481L78.1352 23.8102H88.9923L87.5043 29.4141H69.9336L75.4204 8.98333Z"
      fill="#F25D19"
    />
    <path
      d="M99.2059 23.4598C101.278 23.4598 103.058 22.8469 104.109 21.7961C104.956 20.95 105.569 19.5779 105.569 18.3232C105.569 17.2141 105.248 16.4842 104.722 15.959C104.08 15.3168 103.058 14.9376 101.424 14.9376H100.286L98.0095 23.4598H99.2059ZM95.0611 8.98347H102.3C106.269 8.98347 108.75 10.0632 110.297 11.6103C111.814 13.1279 112.515 15.1125 112.515 17.5933C112.515 20.6577 111.348 23.4598 109.158 25.649C106.707 28.1005 103.175 29.4139 98.447 29.4139H89.5742L95.0611 8.98347Z"
      fill="#F25D19"
    />
    <path
      d="M116.482 21.6213L112.483 8.98324H119.663L121.328 15.8128L126.639 8.98324H134.724L123.108 22.4674L121.24 29.414H114.41L116.482 21.6213Z"
      fill="#F25D19"
    />
    <path
      d="M24.7846 29.1895L19.575 29.0479L24.7846 28.9064V29.1895ZM22.4016 28.5572L22.2137 28.5459L24.0448 28.4368C24.0721 28.4368 24.0946 28.4855 24.0946 28.5459C24.0946 28.6059 24.0721 28.655 24.0448 28.655L24.0302 28.654V28.8082L14.4647 28.6704L22.4016 28.5572ZM21.6404 28.1612V28.4269L13.4415 28.2928L21.6404 28.1612ZM21.1169 27.7884V28.0456L14.421 27.9153L21.1169 27.7884ZM21.4525 27.416V27.6639L12.8778 27.5374L21.4525 27.416ZM19.3165 27.0432V27.2826L13.2185 27.1599L19.3165 27.0432ZM14.5435 26.4048L20.1115 26.298V26.5201L14.5435 26.4048ZM16.7395 24.6136L13.9555 24.517L16.7395 24.4349V24.6136ZM27.0151 15.9239H24.757C24.2068 15.8949 24.0042 15.6633 24.0622 15.4028C24.1202 15.1422 24.4964 14.853 25.1331 14.853H32.949L34.3675 9.03429H23.845V9.02679L23.5605 9.03429H22.1803C21.83 9.01383 21.491 9.04179 21.1606 9.09977L18.6357 9.16832L20.6449 9.22289C20.4283 9.28803 20.2155 9.36511 20.0095 9.46095L14.112 9.54587L19.694 9.62568C19.574 9.69184 19.4546 9.76005 19.3387 9.83576L13.9814 9.92341L19.0951 10.0056C19.0082 10.0687 18.9226 10.1338 18.8383 10.2021L13.759 10.301L18.6132 10.3927C18.5488 10.45 18.4847 10.5076 18.4216 10.568L10.9228 10.6785L18.2094 10.7818C18.1501 10.8436 18.0897 10.9036 18.0321 10.9677L13.639 11.056L17.8882 11.1376C17.8329 11.2027 17.7763 11.2661 17.7224 11.3333L10.1268 11.4336L17.5751 11.5264C17.5229 11.5949 17.4721 11.6652 17.4219 11.7358L13.7754 11.8111L17.3172 11.8793C17.2668 11.953 17.2204 12.0308 17.1719 12.1065L11.8624 12.189L17.073 12.263C17.0307 12.3316 16.9868 12.3988 16.9462 12.4687L7.91237 12.5666L16.8449 12.6535C16.8094 12.7173 16.7739 12.7814 16.7395 12.8466L8.50171 12.9441L16.6419 13.0294C16.6072 13.0986 16.5761 13.1699 16.5427 13.2401L10.9648 13.3217L16.4714 13.3916C16.437 13.4663 16.4008 13.5399 16.3684 13.6156L13.9555 13.6992L16.307 13.7684C16.276 13.8428 16.2463 13.9171 16.217 13.9922L11.4597 14.0767L16.1553 14.1463C16.1263 14.2241 16.101 14.3029 16.0741 14.3813L9.83898 14.4543L16.0294 14.5133C16.0028 14.5931 15.9738 14.6726 15.9489 14.7527L7.07986 14.8318L15.908 14.8939C15.8838 14.9764 15.8623 15.059 15.8401 15.1415L10.2574 15.2094L15.8074 15.2612C15.7842 15.3513 15.7624 15.441 15.7416 15.531L13.3917 15.5869L15.7211 15.6279C15.6444 15.9757 15.5833 16.3222 15.5444 16.664L9.51395 16.7199L15.5369 16.7554C15.527 16.8498 15.5199 16.9433 15.5131 17.0367L12.6131 17.0975L15.5049 17.1336C15.4912 17.3587 15.4844 17.5814 15.4889 17.799L7.62248 17.8525L15.4929 17.8791C15.5004 18.1152 15.5219 18.3437 15.5516 18.567L10.4327 18.6076L15.5598 18.6226C15.5751 18.7318 15.5898 18.8416 15.6109 18.947L8.56071 18.9852L15.6229 18.9964C15.6386 19.0718 15.6584 19.1451 15.6771 19.2185L7.77015 19.2307L15.6904 19.2737C15.7556 19.5169 15.836 19.7481 15.9346 19.9643L9.98392 19.9862L15.9704 20.0353C16.0199 20.1379 16.069 20.2409 16.1263 20.3364L8.08938 20.3637L16.1836 20.4186C16.2491 20.5206 16.3207 20.6168 16.3961 20.7089L6.57715 20.7413L16.4769 20.7999C16.5666 20.9012 16.6631 20.995 16.7658 21.0823L12.6131 21.1188L16.8858 21.1816V21.1778C17.0219 21.2811 17.1651 21.377 17.323 21.4551L8.74522 21.4963L17.585 21.5629C18.013 21.7249 18.5078 21.8043 19.0832 21.7712H21.8911C22.0282 21.7712 22.1438 21.7937 22.2458 21.8285L7.25789 21.8739L22.4637 21.9421C22.5544 22.0124 22.6186 22.1007 22.6598 22.1996L10.5818 22.2514L22.6994 22.3254C22.7158 22.4049 22.7178 22.4881 22.7079 22.572L13.3917 22.629L22.6806 22.7061C22.6578 22.7886 22.624 22.8691 22.5776 22.9458L10.0825 23.0065L22.475 23.0857C22.3952 23.1771 22.2959 23.2558 22.1793 23.3176L7.54949 23.3841L14.9718 23.4502H13.8146L13.7502 23.7159L16.5178 23.6897V23.8506L13.7256 23.8179L13.653 24.1167L17.3275 24.0621V24.2323L13.641 24.1664L13.4685 24.8782L19.0355 24.8076V24.9949L13.4599 24.913L13.3808 25.2391L19.0174 25.1801V25.3762L13.3638 25.309L13.2938 25.5972L17.8708 25.5528V25.7575L13.2672 25.7077L13.1942 26.0085L19.0365 25.9253V26.1388L13.1847 26.0477L13.0142 26.7516L19.5235 26.6705V26.9013L12.9985 26.8151L12.3965 29.2976H24.5834C30.4597 29.6448 35.0912 15.9239 27.0151 15.9239Z"
      fill="#3D3D3D"
    />
    <path
      d="M10.5215 26.7824L12.9982 26.8152L13.0136 26.7514L10.5215 26.7824Z"
      fill="#3D3D3D"
    />
    <path
      d="M11.8623 26.0273L13.1846 26.0477L13.1941 26.0085L11.8623 26.0273Z"
      fill="#3D3D3D"
    />
    <path
      d="M7.91211 25.6498L13.267 25.7077L13.2936 25.5972L7.91211 25.6498Z"
      fill="#3D3D3D"
    />
    <path
      d="M10.2383 25.2721L13.3644 25.3093L13.3814 25.239L10.2383 25.2721Z"
      fill="#3D3D3D"
    />
    <path
      d="M12.1865 24.8945L13.4604 24.9133L13.4689 24.8782L12.1865 24.8945Z"
      fill="#3D3D3D"
    />
    <path
      d="M12.1182 24.1394L13.6413 24.1664L13.6532 24.1166L12.1182 24.1394Z"
      fill="#3D3D3D"
    />
    <path
      d="M8.93359 23.7619L13.725 23.8181L13.7499 23.7162L8.93359 23.7619Z"
      fill="#3D3D3D"
    />
    <path
      d="M14.6721 19.5908L8.67676 19.6086L14.6721 19.656V19.5908Z"
      fill="#3D3D3D"
    />
    <path
      d="M15.4499 15.8907L10.582 15.9647L15.4499 16.0169V15.8907Z"
      fill="#3D3D3D"
    />
    <path
      d="M15.3111 16.3896V16.272L6.90723 16.3422L15.3111 16.3896Z"
      fill="#3D3D3D"
    />
    <path
      d="M15.3569 17.4161L6.57715 17.4751L15.3569 17.5075V17.4161Z"
      fill="#3D3D3D"
    />
    <path
      d="M15.4493 18.1787L9.21484 18.2302L15.4493 18.2527V18.1787Z"
      fill="#3D3D3D"
    />
    <path
      d="M122.758 25.0165L115.63 24.7918V25.2413L122.758 25.0165Z"
      fill="#F25D19"
    />
    <path
      d="M117.519 25.3971V25.8323L136.756 25.6157L117.519 25.3971Z"
      fill="#F25D19"
    />
    <path
      d="M117.341 26.0023V26.4238L130.481 26.2148L117.341 26.0023Z"
      fill="#F25D19"
    />
    <path
      d="M119.1 26.6075V27.0154L132.566 26.8141L119.1 26.6075Z"
      fill="#F25D19"
    />
    <path
      d="M115.63 27.2127V27.6066L132.875 27.4136L115.63 27.2127Z"
      fill="#F25D19"
    />
    <path
      d="M117.863 27.8179V28.1982L130.127 28.0126L117.863 27.8179Z"
      fill="#F25D19"
    />
    <path
      d="M119.789 29.0282V29.3805L130.988 29.211L119.789 29.0282Z"
      fill="#F25D19"
    />
    <path
      d="M133.874 8.98333L144.88 9.00789L133.874 9.09247C133.857 9.09247 133.843 9.06791 133.843 9.0379C133.843 9.00789 133.857 8.98333 133.874 8.98333Z"
      fill="#F25D19"
    />
    <path
      d="M131.342 9.64154L138.019 9.67564L131.342 9.76739C131.322 9.76739 131.306 9.73942 131.306 9.70429C131.306 9.66951 131.322 9.64154 131.342 9.64154Z"
      fill="#F25D19"
    />
    <path
      d="M133.28 10.3599L140.223 10.4036L133.28 10.5028C133.257 10.5028 133.238 10.4708 133.238 10.4312C133.238 10.392 133.257 10.3599 133.28 10.3599Z"
      fill="#F25D19"
    />
    <path
      d="M132.751 11.0783L141.777 11.1315L132.751 11.2379C132.726 11.2379 132.705 11.2021 132.705 11.1581C132.705 11.1141 132.726 11.0783 132.751 11.0783Z"
      fill="#F25D19"
    />
    <path
      d="M131.407 11.7644L141.185 11.8272L131.407 11.9407C131.379 11.9407 131.356 11.9012 131.356 11.8524C131.356 11.804 131.379 11.7644 131.407 11.7644Z"
      fill="#F25D19"
    />
    <path
      d="M131.167 12.515L134.506 12.5873L131.167 12.7081C131.137 12.7081 131.111 12.6648 131.111 12.6116C131.111 12.5584 131.137 12.515 131.167 12.515Z"
      fill="#F25D19"
    />
    <path
      d="M127.686 13.2335L135.676 13.3153L127.686 13.4432C127.652 13.4432 127.625 13.3965 127.625 13.3382C127.625 13.2805 127.652 13.2335 127.686 13.2335Z"
      fill="#F25D19"
    />
    <path
      d="M128.4 13.9518L137.76 14.0432L128.4 14.1783C128.364 14.1783 128.335 14.1278 128.335 14.0651C128.335 14.0026 128.364 13.9518 128.4 13.9518Z"
      fill="#F25D19"
    />
    <path
      d="M126.618 14.6702L132.04 14.7712L126.618 14.9137C126.579 14.9137 126.548 14.8592 126.548 14.792C126.548 14.7248 126.579 14.6702 126.618 14.6702Z"
      fill="#F25D19"
    />
    <path
      d="M125.66 15.3885L129.294 15.499L125.66 15.6487C125.619 15.6487 125.585 15.5904 125.585 15.5188C125.585 15.4468 125.619 15.3885 125.66 15.3885Z"
      fill="#F25D19"
    />
    <path
      d="M128.015 16.1069L135.472 16.227L128.015 16.3839C127.971 16.3839 127.935 16.3218 127.935 16.2454C127.935 16.169 127.971 16.1069 128.015 16.1069Z"
      fill="#F25D19"
    />
    <path
      d="M122.155 16.8253L132.809 16.9549L122.155 17.1193C122.109 17.1193 122.07 17.0535 122.07 16.9723C122.07 16.8912 122.109 16.8253 122.155 16.8253Z"
      fill="#F25D19"
    />
    <path
      d="M121.407 17.5437L129.854 17.6829L121.407 17.8544C121.358 17.8544 121.317 17.7848 121.317 17.6989C121.317 17.6133 121.358 17.5437 121.407 17.5437Z"
      fill="#F25D19"
    />
    <path
      d="M123.694 18.2621L129.496 18.4108L123.694 18.5895C123.642 18.5895 123.6 18.5162 123.6 18.4258C123.6 18.3354 123.642 18.2621 123.694 18.2621Z"
      fill="#F25D19"
    />
    <path
      d="M125.243 18.9805L128.344 19.1387L125.243 19.3246C125.188 19.3246 125.144 19.2475 125.144 19.1527C125.144 19.0576 125.188 18.9805 125.243 18.9805Z"
      fill="#F25D19"
    />
    <path
      d="M122.259 19.6988L129.887 19.8666L122.259 20.0597C122.201 20.0597 122.154 19.9788 122.154 19.8793C122.154 19.7797 122.201 19.6988 122.259 19.6988Z"
      fill="#F25D19"
    />
    <path
      d="M119.515 20.4172L129.294 20.5946L119.515 20.7951C119.455 20.7951 119.406 20.7102 119.406 20.6062C119.406 20.5018 119.455 20.4172 119.515 20.4172Z"
      fill="#F25D19"
    />
    <path
      d="M117.558 21.1356L128.649 21.3225L117.558 21.5302C117.495 21.5302 117.444 21.4419 117.444 21.3327C117.444 21.2239 117.495 21.1356 117.558 21.1356Z"
      fill="#F25D19"
    />
    <path
      d="M122.059 21.854L130.049 22.0504L122.059 22.2653C121.994 22.2653 121.94 22.1732 121.94 22.0596C121.94 21.9461 121.994 21.854 122.059 21.854Z"
      fill="#F25D19"
    />
    <path
      d="M119.819 22.5723L126.02 22.7783L119.819 23.0007C119.751 23.0007 119.695 22.9045 119.695 22.7865C119.695 22.6681 119.751 22.5723 119.819 22.5723Z"
      fill="#F25D19"
    />
    <path
      d="M120.317 23.2907L130.343 23.5063L120.317 23.7358C120.246 23.7358 120.188 23.6359 120.188 23.5131C120.188 23.3903 120.246 23.2907 120.317 23.2907Z"
      fill="#F25D19"
    />
    <path
      d="M116.935 24.0091L123.726 24.2342L116.935 24.4709C116.861 24.4709 116.802 24.3675 116.802 24.24C116.802 24.1124 116.861 24.0091 116.935 24.0091Z"
      fill="#F25D19"
    />
    <path
      d="M118.146 23.9769L126.136 23.895L118.146 23.7672C118.112 23.7672 118.085 23.8139 118.085 23.8719C118.085 23.9298 118.112 23.9769 118.146 23.9769Z"
      fill="#F25D19"
    />
    <path
      d="M118.211 23.2585L127.57 23.1671L118.211 23.0317C118.175 23.0317 118.146 23.0825 118.146 23.1453C118.146 23.2077 118.175 23.2585 118.211 23.2585Z"
      fill="#F25D19"
    />
    <path
      d="M118.305 22.5401L123.726 22.4392L118.305 22.2966C118.266 22.2966 118.234 22.3512 118.234 22.4184C118.234 22.4856 118.266 22.5401 118.305 22.5401Z"
      fill="#F25D19"
    />
    <path
      d="M123.609 21.8218L127.242 21.7113L123.609 21.5616C123.568 21.5616 123.534 21.6199 123.534 21.6915C123.534 21.7635 123.568 21.8218 123.609 21.8218Z"
      fill="#F25D19"
    />
    <path
      d="M120.887 21.1033L128.344 20.9833L120.887 20.8264C120.842 20.8264 120.807 20.8885 120.807 20.9649C120.807 21.0413 120.842 21.1033 120.887 21.1033Z"
      fill="#F25D19"
    />
    <path
      d="M124.843 20.385L135.496 20.2554L124.843 20.091C124.796 20.091 124.758 20.1568 124.758 20.238C124.758 20.3192 124.796 20.385 124.843 20.385Z"
      fill="#F25D19"
    />
    <path
      d="M124.157 19.6666L132.604 19.5274L124.157 19.3559C124.108 19.3559 124.067 19.4254 124.067 19.5114C124.067 19.597 124.108 19.6666 124.157 19.6666Z"
      fill="#F25D19"
    />
    <path
      d="M121.111 18.9482L126.913 18.7995L121.111 18.6208C121.059 18.6208 121.017 18.6942 121.017 18.7845C121.017 18.8749 121.059 18.9482 121.111 18.9482Z"
      fill="#F25D19"
    />
    <path
      d="M126.671 18.2299L129.771 18.0716L126.671 17.8858C126.616 17.8858 126.571 17.9628 126.571 18.0577C126.571 18.1528 126.616 18.2299 126.671 18.2299Z"
      fill="#F25D19"
    />
    <path
      d="M123.151 17.5115L130.779 17.3437L123.151 17.1504C123.093 17.1504 123.047 17.2315 123.047 17.3311C123.047 17.4307 123.093 17.5115 123.151 17.5115Z"
      fill="#F25D19"
    />
    <path
      d="M127.205 16.7931L136.983 16.6158L127.205 16.4152C127.144 16.4152 127.096 16.4998 127.096 16.6042C127.096 16.7085 127.144 16.7931 127.205 16.7931Z"
      fill="#F25D19"
    />
    <path
      d="M125.146 16.0747L136.237 15.8878L125.146 15.6801C125.083 15.6801 125.032 15.7687 125.032 15.8775C125.032 15.9863 125.083 16.0747 125.146 16.0747Z"
      fill="#F25D19"
    />
    <path
      d="M125.127 15.3564L133.117 15.1599L125.127 14.9451C125.062 14.9451 125.009 15.0372 125.009 15.1507C125.009 15.2643 125.062 15.3564 125.127 15.3564Z"
      fill="#F25D19"
    />
    <path
      d="M127.037 14.6379L133.238 14.432L127.037 14.2099C126.969 14.2099 126.913 14.3058 126.913 14.4238C126.913 14.5421 126.969 14.6379 127.037 14.6379Z"
      fill="#F25D19"
    />
    <path
      d="M130.378 13.9196L140.403 13.7041L130.378 13.4746C130.307 13.4746 130.249 13.5741 130.249 13.6973C130.249 13.82 130.307 13.9196 130.378 13.9196Z"
      fill="#F25D19"
    />
    <path
      d="M128.846 13.2012L135.638 12.9761L128.846 12.7395C128.773 12.7395 128.713 12.8428 128.713 12.9703C128.713 13.0979 128.773 13.2012 128.846 13.2012Z"
      fill="#F25D19"
    />
    <path
      d="M127.897 12.4828L137.447 12.2482L127.897 12.0043C127.821 12.0043 127.759 12.1114 127.759 12.2434C127.759 12.3757 127.821 12.4828 127.897 12.4828Z"
      fill="#F25D19"
    />
    <path
      d="M132.319 11.7644L139.776 11.5202L132.319 11.2692C132.24 11.2692 132.176 11.38 132.176 11.5168C132.176 11.6536 132.24 11.7644 132.319 11.7644Z"
      fill="#F25D19"
    />
    <path
      d="M131.779 11.0461L140.91 10.7923L131.779 10.5338C131.697 10.5338 131.631 10.6487 131.631 10.7899C131.631 10.9315 131.697 11.0461 131.779 11.0461Z"
      fill="#F25D19"
    />
    <path
      d="M131.991 10.3276L142.644 10.0643L131.991 9.79866C131.906 9.79866 131.838 9.91734 131.838 10.0633C131.838 10.2093 131.906 10.3276 131.991 10.3276Z"
      fill="#F25D19"
    />
    <path
      d="M133.968 9.60938L139.77 9.33653L133.968 9.06369C133.881 9.06369 133.811 9.18579 133.811 9.33653C133.811 9.48694 133.881 9.60938 133.968 9.60938Z"
      fill="#F25D19"
    />
    <path
      d="M121.239 29.414L131.785 29.4287L121.066 28.8997C121.009 28.8997 120.962 28.9805 120.962 29.0801C120.962 29.1797 118.091 29.0784 121.239 29.414Z"
      fill="#F25D19"
    />
    <path
      d="M119.497 28.5423L129.275 28.3649L119.497 28.1644C119.436 28.1644 119.388 28.2493 119.388 28.3533C119.388 28.4577 119.436 28.5423 119.497 28.5423Z"
      fill="#F25D19"
    />
    <path
      d="M118.842 27.8238L129.933 27.6369L118.842 27.4292C118.779 27.4292 118.729 27.5176 118.729 27.6267C118.729 27.7355 118.779 27.8238 118.842 27.8238Z"
      fill="#F25D19"
    />
    <path
      d="M121.311 27.1055L129.301 26.9091L121.311 26.6942C121.246 26.6942 121.192 26.7863 121.192 26.8999C121.192 27.0134 121.246 27.1055 121.311 27.1055Z"
      fill="#F25D19"
    />
    <path
      d="M119.801 26.3871L126.002 26.1812L119.801 25.9591C119.732 25.9591 119.677 26.055 119.677 26.173C119.677 26.2913 119.732 26.3871 119.801 26.3871Z"
      fill="#F25D19"
    />
    <path
      d="M117.122 25.6687L127.147 25.4532L117.122 25.2236C117.051 25.2236 116.993 25.3236 116.993 25.4464C116.993 25.5691 117.051 25.6687 117.122 25.6687Z"
      fill="#F25D19"
    />
    <path
      d="M118.875 24.9826L126.865 25.0644L118.875 25.1927C118.842 25.1927 118.814 25.1456 118.814 25.0876C118.814 25.0296 118.842 24.9826 118.875 24.9826Z"
      fill="#F25D19"
    />
    <path
      d="M118.192 25.7009L127.552 25.7924L118.192 25.9277C118.156 25.9277 118.127 25.8769 118.127 25.8142C118.127 25.7518 118.156 25.7009 118.192 25.7009Z"
      fill="#F25D19"
    />
    <path
      d="M118.286 26.4193L123.708 26.5203L118.286 26.6629C118.247 26.6629 118.216 26.6083 118.216 26.5411C118.216 26.4739 118.247 26.4193 118.286 26.4193Z"
      fill="#F25D19"
    />
    <path
      d="M120.867 27.8561L128.324 27.9761L120.867 28.133C120.823 28.133 120.787 28.071 120.787 27.9946C120.787 27.9182 120.823 27.8561 120.867 27.8561Z"
      fill="#F25D19"
    />
    <path
      d="M121.277 28.5745L131.931 28.7041L121.277 28.8684C121.231 28.8684 121.192 28.8026 121.192 28.7214C121.192 28.6403 121.231 28.5745 121.277 28.5745Z"
      fill="#F25D19"
    />
    <path
      d="M106.747 29.3078L154.498 29.4548V29.1608L106.747 29.3078Z"
      fill="white"
    />
    <path
      d="M177.424 29.0589V28.7742L89.7461 28.916L177.424 29.0589Z"
      fill="white"
    />
    <path
      d="M155.52 28.6633V28.3877L80.3682 28.5241L155.52 28.6633Z"
      fill="white"
    />
    <path
      d="M150.721 28.2676V28.0009L89.3477 28.1326L150.721 28.2676Z"
      fill="white"
    />
    <path
      d="M153.797 27.8719V27.6144L75.2002 27.7406L153.797 27.8719Z"
      fill="white"
    />
    <path
      d="M134.218 27.4763V27.2276L78.3242 27.3491L134.218 27.4763Z"
      fill="white"
    />
    <path
      d="M136.117 27.0806V26.8412L53.6055 26.9572L136.117 27.0806Z"
      fill="white"
    />
    <path
      d="M141.507 26.685V26.4544L90.4678 26.5652L141.507 26.685Z"
      fill="white"
    />
    <path
      d="M131.653 26.2893V26.0679L65.8955 26.1737L131.653 26.2893Z"
      fill="white"
    />
    <path
      d="M120.967 25.8936V25.6811L29.6875 25.7817L120.967 25.8936Z"
      fill="white"
    />
    <path
      d="M131.478 25.498V25.2947L51.002 25.3902L131.478 25.498Z"
      fill="white"
    />
    <path
      d="M131.642 25.1023V24.9079L68.8604 24.9983L131.642 25.1023Z"
      fill="white"
    />
    <path
      d="M110.597 24.7067V24.5215L85.0801 24.6064L110.597 24.7067Z"
      fill="white"
    />
    <path
      d="M124.35 24.311V24.1347L68.2363 24.2148L124.35 24.311Z"
      fill="white"
    />
    <path
      d="M198.922 23.9153V23.7482L39.0518 23.8229L198.922 23.9153Z"
      fill="white"
    />
    <path
      d="M202.784 23.5196V23.3614L26.3623 23.4313L202.784 23.5196Z"
      fill="white"
    />
    <path
      d="M194.496 23.124V22.9749L49.5781 23.0394L194.496 23.124Z"
      fill="white"
    />
    <path
      d="M193.357 22.7283V22.5882L79.9111 22.6475L193.357 22.7283Z"
      fill="white"
    />
    <path
      d="M198.922 22.3327V22.2017L54.1543 22.256L198.922 22.3327Z"
      fill="white"
    />
    <path
      d="M200.867 21.937V21.8149L23.6875 21.8644L200.867 21.937Z"
      fill="white"
    />
    <path
      d="M201.501 21.5413V21.4284L37.3223 21.4724L201.501 21.5413Z"
      fill="white"
    />
    <path
      d="M165.701 21.1457V21.0417L72.7744 21.0805L165.701 21.1457Z"
      fill="white"
    />
    <path
      d="M163.374 20.75V20.6551L17.4492 20.6889L163.374 20.75Z"
      fill="white"
    />
    <path
      d="M156.942 20.3543V20.2684L31.3086 20.297L156.942 20.3543Z"
      fill="white"
    />
    <path
      d="M157.165 19.9587V19.8819L48.6738 19.9055L157.165 19.9587Z"
      fill="white"
    />
    <path
      d="M142.997 19.563V19.4951L36.6982 19.5135L142.997 19.563Z"
      fill="white"
    />
    <path
      d="M28.3848 19.1217L154.018 19.1674V19.1088L28.3848 19.1217Z"
      fill="white"
    />
    <path
      d="M127.978 8.68096L175.728 8.53396V8.82795L127.978 8.68096Z"
      fill="white"
    />
    <path
      d="M174.19 8.92983V9.21426L86.5127 9.07273L174.19 8.92983Z"
      fill="white"
    />
    <path
      d="M160.469 9.32541V9.60098L85.3174 9.46456L160.469 9.32541Z"
      fill="white"
    />
    <path
      d="M153.797 9.72114V9.98784L83.2773 9.85619L153.797 9.72114Z"
      fill="white"
    />
    <path
      d="M157.725 10.1168V10.3743L57.2812 10.2481L157.725 10.1168Z"
      fill="white"
    />
    <path
      d="M149.109 10.5124V10.761L82.1787 10.64L149.109 10.5124Z"
      fill="white"
    />
    <path
      d="M147.784 10.9081V11.1475L49.9844 11.0315L147.784 10.9081Z"
      fill="white"
    />
    <path
      d="M140.494 11.3038V11.534L83.4287 11.4232L140.494 11.3038Z"
      fill="white"
    />
    <path
      d="M141.507 11.6994V11.9208L65.8955 11.8151L141.507 11.6994Z"
      fill="white"
    />
    <path
      d="M134.218 12.0951V12.3075L29.6875 12.2069L134.218 12.0951Z"
      fill="white"
    />
    <path
      d="M135.611 12.4908V12.6941L35.0889 12.5986L135.611 12.4908Z"
      fill="white"
    />
    <path
      d="M140.494 12.8864V13.0805L57.666 12.9905L140.494 12.8864Z"
      fill="white"
    />
    <path
      d="M130.643 13.2821V13.4673L85.0801 13.382L130.643 13.2821Z"
      fill="white"
    />
    <path
      d="M129.999 13.6777V13.854L62.2021 13.7739L129.999 13.6777Z"
      fill="white"
    />
    <path
      d="M136.907 14.0734V14.2405L47.3457 14.1658L136.907 14.0734Z"
      fill="white"
    />
    <path
      d="M129.78 14.469V14.6273L22.0566 14.5574L129.78 14.469Z"
      fill="white"
    />
    <path
      d="M132.601 14.8648V15.0138L51.1816 14.9493L132.601 14.8648Z"
      fill="white"
    />
    <path
      d="M161.157 15.2604V15.4006L131.256 15.3409L161.157 15.2604Z"
      fill="white"
    />
    <path
      d="M150.119 15.6561V15.787L54.1543 15.7328L150.119 15.6561Z"
      fill="white"
    />
    <path
      d="M148.849 16.0517V16.1738L20.4727 16.1247L148.849 16.0517Z"
      fill="white"
    />
    <path
      d="M161.471 16.4474V16.5603L44.3682 16.5163L161.471 16.4474Z"
      fill="white"
    />
    <path
      d="M151.596 16.8431V16.9471L72.7744 16.9082L151.596 16.8431Z"
      fill="white"
    />
    <path
      d="M149.269 17.2387V17.3335L17.4492 17.2998L149.269 17.2387Z"
      fill="white"
    />
    <path
      d="M152.663 17.6343V17.7203L27.0303 17.6916L152.663 17.6343Z"
      fill="white"
    />
    <path
      d="M150.119 18.03V18.1068L41.6279 18.0836L150.119 18.03Z"
      fill="white"
    />
    <path
      d="M159.087 18.4257V18.4936L52.7881 18.4752L159.087 18.4257Z"
      fill="white"
    />
    <path
      d="M35.6309 18.8669L161.264 18.8212V18.8802L35.6309 18.8669Z"
      fill="white"
    />
    <path d="M124.35 24.8303L68.2363 24.9104L124.35 24.8303Z" fill="white" />
    <path
      d="M151.307 15.2559V15.4049L69.8877 15.3405L151.307 15.2559Z"
      fill="white"
    />
    <path
      d="M51.0273 31.7424C51.4461 31.7424 51.7343 31.5634 51.7343 31.1292C51.7343 30.8257 51.5709 30.5494 51.1002 30.5494H50.4055V31.7424H51.0273ZM51.1091 30.4434C51.6616 30.4434 51.8529 30.7711 51.8529 31.1261C51.8529 31.6391 51.5129 31.8454 51.0331 31.8454H50.4055V32.5831H50.293V30.4434H51.1091Z"
      fill="#03023E"
    />
    <path
      d="M51.0273 31.7424C51.4461 31.7424 51.7343 31.5634 51.7343 31.1292C51.7343 30.8257 51.5709 30.5494 51.1002 30.5494H50.4055V31.7424H51.0273ZM51.1091 30.4434C51.6616 30.4434 51.8529 30.7711 51.8529 31.1261C51.8529 31.6391 51.5129 31.8454 51.0331 31.8454H50.4055V32.5831H50.293V30.4434H51.1091Z"
      stroke="#03023E"
      strokeWidth="0.0852631"
      stroke-miterlimit="10"
    />
    <path
      d="M52.3601 31.3388C52.4542 31.0868 52.6486 30.9197 52.9157 30.9169C53.004 30.9169 53.1009 30.9377 53.1981 30.9865L53.1708 31.0926C53.0767 31.0476 52.9856 31.0319 52.9068 31.0319C52.5821 31.0319 52.3601 31.3354 52.3601 31.7242V32.583H52.251V30.9469H52.3601V31.3388Z"
      fill="#03023E"
    />
    <path
      d="M52.3601 31.3388C52.4542 31.0868 52.6486 30.9197 52.9157 30.9169C53.004 30.9169 53.1009 30.9377 53.1981 30.9865L53.1708 31.0926C53.0767 31.0476 52.9856 31.0319 52.9068 31.0319C52.5821 31.0319 52.3601 31.3354 52.3601 31.7242V32.583H52.251V30.9469H52.3601V31.3388Z"
      stroke="#03023E"
      strokeWidth="0.0852631"
      stroke-miterlimit="10"
    />
    <path
      d="M53.5374 31.706H54.9367C54.9155 31.3052 54.6632 31.0198 54.257 31.0198C53.847 31.0198 53.5558 31.3206 53.5374 31.706ZM55.0428 31.8032H53.5374C53.5616 32.2039 53.8832 32.489 54.2628 32.489C54.5087 32.489 54.7457 32.398 54.8913 32.2128L54.9759 32.2796C54.8241 32.471 54.5632 32.5951 54.257 32.5951C53.7648 32.5951 53.4248 32.2189 53.4248 31.7575C53.4248 31.2933 53.7648 30.9168 54.257 30.9168C54.7426 30.9168 55.0428 31.2688 55.0428 31.7667V31.8032Z"
      fill="#03023E"
    />
    <path
      d="M53.5374 31.706H54.9367C54.9155 31.3052 54.6632 31.0198 54.257 31.0198C53.847 31.0198 53.5558 31.3206 53.5374 31.706ZM55.0428 31.8032H53.5374C53.5616 32.2039 53.8832 32.489 54.2628 32.489C54.5087 32.489 54.7457 32.398 54.8913 32.2128L54.9759 32.2796C54.8241 32.471 54.5632 32.5951 54.257 32.5951C53.7648 32.5951 53.4248 32.2189 53.4248 31.7575C53.4248 31.2933 53.7648 30.9168 54.257 30.9168C54.7426 30.9168 55.0428 31.2688 55.0428 31.7667V31.8032Z"
      stroke="#03023E"
      strokeWidth="0.0852631"
      stroke-miterlimit="10"
    />
    <path
      d="M56.8376 32.316C56.6889 32.4889 56.4768 32.5953 56.2459 32.5953C55.7545 32.5953 55.3564 32.2188 55.3564 31.7574C55.3564 31.2932 55.7545 30.9167 56.2459 30.9167C56.4857 30.9167 56.6947 31.0231 56.8407 31.1933L56.7619 31.2628C56.6374 31.1169 56.4522 31.0231 56.2459 31.0231C55.8148 31.0231 55.4659 31.3505 55.4659 31.7574C55.4659 32.1612 55.8148 32.4889 56.2459 32.4889C56.4492 32.4889 56.6344 32.3917 56.7619 32.2403L56.8376 32.316Z"
      fill="#03023E"
    />
    <path
      d="M56.8376 32.316C56.6889 32.4889 56.4768 32.5953 56.2459 32.5953C55.7545 32.5953 55.3564 32.2188 55.3564 31.7574C55.3564 31.2932 55.7545 30.9167 56.2459 30.9167C56.4857 30.9167 56.6947 31.0231 56.8407 31.1933L56.7619 31.2628C56.6374 31.1169 56.4522 31.0231 56.2459 31.0231C55.8148 31.0231 55.4659 31.3505 55.4659 31.7574C55.4659 32.1612 55.8148 32.4889 56.2459 32.4889C56.4492 32.4889 56.6344 32.3917 56.7619 32.2403L56.8376 32.316Z"
      stroke="#03023E"
      strokeWidth="0.0852631"
      stroke-miterlimit="10"
    />
    <path
      d="M57.2549 30.9471H57.3675V32.5831H57.2549V30.9471ZM57.4005 30.5133C57.4005 30.5648 57.361 30.6013 57.3095 30.6013C57.258 30.6013 57.2188 30.5648 57.2188 30.5133C57.2188 30.4615 57.258 30.425 57.3095 30.425C57.361 30.425 57.4005 30.4615 57.4005 30.5133Z"
      fill="#03023E"
    />
    <path
      d="M57.2549 30.9471H57.3675V32.5831H57.2549V30.9471ZM57.4005 30.5133C57.4005 30.5648 57.361 30.6013 57.3095 30.6013C57.258 30.6013 57.2188 30.5648 57.2188 30.5133C57.2188 30.4615 57.258 30.425 57.3095 30.425C57.361 30.425 57.4005 30.4615 57.4005 30.5133Z"
      stroke="#03023E"
      strokeWidth="0.0852631"
      stroke-miterlimit="10"
    />
    <path
      d="M57.8307 32.3554C58.0094 32.4253 58.2287 32.4918 58.4651 32.4918C58.8631 32.4918 59.0022 32.3162 59.0022 32.1341C59.0022 31.9304 58.7628 31.8486 58.4409 31.7817C58.0793 31.7091 57.8188 31.6027 57.8188 31.3476C57.8188 31.099 58.0766 30.9168 58.4136 30.9168C58.6203 30.9168 58.8205 30.9591 59.0118 31.0413L58.9749 31.132C58.802 31.0533 58.6107 31.0198 58.4136 31.0198C58.1377 31.0198 57.9248 31.1563 57.9248 31.3476C57.9248 31.5331 58.125 31.6119 58.4651 31.6787C58.8447 31.7517 59.1086 31.8575 59.1086 32.131C59.1086 32.3704 58.9323 32.5952 58.462 32.5952C58.2072 32.5952 57.9763 32.5252 57.7881 32.4465L57.8307 32.3554Z"
      fill="#03023E"
    />
    <path
      d="M57.8307 32.3554C58.0094 32.4253 58.2287 32.4918 58.4651 32.4918C58.8631 32.4918 59.0022 32.3162 59.0022 32.1341C59.0022 31.9304 58.7628 31.8486 58.4409 31.7817C58.0793 31.7091 57.8188 31.6027 57.8188 31.3476C57.8188 31.099 58.0766 30.9168 58.4136 30.9168C58.6203 30.9168 58.8205 30.9591 59.0118 31.0413L58.9749 31.132C58.802 31.0533 58.6107 31.0198 58.4136 31.0198C58.1377 31.0198 57.9248 31.1563 57.9248 31.3476C57.9248 31.5331 58.125 31.6119 58.4651 31.6787C58.8447 31.7517 59.1086 31.8575 59.1086 32.131C59.1086 32.3704 58.9323 32.5952 58.462 32.5952C58.2072 32.5952 57.9763 32.5252 57.7881 32.4465L57.8307 32.3554Z"
      stroke="#03023E"
      strokeWidth="0.0852631"
      stroke-miterlimit="10"
    />
    <path
      d="M59.5261 30.9471H59.6386V32.5831H59.5261V30.9471ZM59.6717 30.5133C59.6717 30.5648 59.6322 30.6013 59.5803 30.6013C59.5288 30.6013 59.4893 30.5648 59.4893 30.5133C59.4893 30.4615 59.5288 30.425 59.5803 30.425C59.6322 30.425 59.6717 30.4615 59.6717 30.5133Z"
      fill="#03023E"
    />
    <path
      d="M59.5261 30.9471H59.6386V32.5831H59.5261V30.9471ZM59.6717 30.5133C59.6717 30.5648 59.6322 30.6013 59.5803 30.6013C59.5288 30.6013 59.4893 30.5648 59.4893 30.5133C59.4893 30.4615 59.5288 30.425 59.5803 30.425C59.6322 30.425 59.6717 30.4615 59.6717 30.5133Z"
      stroke="#03023E"
      strokeWidth="0.0852631"
      stroke-miterlimit="10"
    />
    <path
      d="M61.7234 31.7575C61.7234 31.3507 61.3738 31.0232 60.9464 31.0232C60.515 31.0232 60.1665 31.3507 60.1665 31.7575C60.1665 32.161 60.515 32.4891 60.9464 32.4891C61.3738 32.4891 61.7234 32.161 61.7234 31.7575ZM61.8325 31.7575C61.8325 32.219 61.4348 32.5952 60.9464 32.5952C60.4546 32.5952 60.0566 32.219 60.0566 31.7575C60.0566 31.2934 60.4546 30.9168 60.9464 30.9168C61.4348 30.9168 61.8325 31.2934 61.8325 31.7575Z"
      fill="#03023E"
    />
    <path
      d="M61.7234 31.7575C61.7234 31.3507 61.3738 31.0232 60.9464 31.0232C60.515 31.0232 60.1665 31.3507 60.1665 31.7575C60.1665 32.161 60.515 32.4891 60.9464 32.4891C61.3738 32.4891 61.7234 32.161 61.7234 31.7575ZM61.8325 31.7575C61.8325 32.219 61.4348 32.5952 60.9464 32.5952C60.4546 32.5952 60.0566 32.219 60.0566 31.7575C60.0566 31.2934 60.4546 30.9168 60.9464 30.9168C61.4348 30.9168 61.8325 31.2934 61.8325 31.7575Z"
      stroke="#03023E"
      strokeWidth="0.0852631"
      stroke-miterlimit="10"
    />
    <path
      d="M63.7059 31.6391V32.5831H63.5964V31.6391C63.5964 31.2383 63.3321 31.0231 62.992 31.0231C62.725 31.0231 62.5221 31.1077 62.3607 31.2506V32.5831H62.252V30.9471H62.3607V31.1446C62.5094 30.9989 62.7376 30.9167 63.0016 30.9167C63.3989 30.9167 63.7059 31.1626 63.7059 31.6391Z"
      fill="#03023E"
    />
    <path
      d="M63.7059 31.6391V32.5831H63.5964V31.6391C63.5964 31.2383 63.3321 31.0231 62.992 31.0231C62.725 31.0231 62.5221 31.1077 62.3607 31.2506V32.5831H62.252V30.9471H62.3607V31.1446C62.5094 30.9989 62.7376 30.9167 63.0016 30.9167C63.3989 30.9167 63.7059 31.1626 63.7059 31.6391Z"
      stroke="#03023E"
      strokeWidth="0.0852631"
      stroke-miterlimit="10"
    />
    <path
      d="M64.2362 32.5375C64.2362 32.8199 64.0632 32.9502 63.9323 32.9594L63.9111 32.9018C64.008 32.8868 64.142 32.7803 64.142 32.5924C64.0963 32.5924 64.0568 32.5529 64.0568 32.5044C64.0568 32.4557 64.1025 32.4161 64.142 32.4161C64.1966 32.4161 64.2362 32.4557 64.2362 32.5375Z"
      fill="#03023E"
    />
    <path
      d="M64.2362 32.5375C64.2362 32.8199 64.0632 32.9502 63.9323 32.9594L63.9111 32.9018C64.008 32.8868 64.142 32.7803 64.142 32.5924C64.0963 32.5924 64.0568 32.5529 64.0568 32.5044C64.0568 32.4557 64.1025 32.4161 64.142 32.4161C64.1966 32.4161 64.2362 32.4557 64.2362 32.5375Z"
      stroke="#03023E"
      strokeWidth="0.0852631"
      stroke-miterlimit="10"
    />
    <path
      d="M67.1115 32.0338C67.1115 32.3946 66.8045 32.6044 66.3499 32.6044C66.0129 32.6044 65.8762 32.5802 65.5361 32.4103L65.5818 32.3159C65.9031 32.4738 66.0341 32.498 66.3499 32.498C66.7383 32.498 66.9958 32.3281 66.9958 32.0369C66.9958 31.7483 66.6957 31.6546 66.3403 31.5662C65.9157 31.4632 65.5515 31.3476 65.5515 30.9834C65.5515 30.659 65.8274 30.4312 66.2769 30.4312C66.5197 30.4312 66.8355 30.495 67.0204 30.5949L66.9686 30.6921C66.7929 30.5949 66.4955 30.5376 66.2769 30.5376C65.8973 30.5376 65.6671 30.7225 65.6671 30.9806C65.6671 31.2661 65.9856 31.363 66.3676 31.4571C66.7687 31.5574 67.1115 31.6754 67.1115 32.0338Z"
      fill="#03023E"
    />
    <path
      d="M67.1115 32.0338C67.1115 32.3946 66.8045 32.6044 66.3499 32.6044C66.0129 32.6044 65.8762 32.5802 65.5361 32.4103L65.5818 32.3159C65.9031 32.4738 66.0341 32.498 66.3499 32.498C66.7383 32.498 66.9958 32.3281 66.9958 32.0369C66.9958 31.7483 66.6957 31.6546 66.3403 31.5662C65.9157 31.4632 65.5515 31.3476 65.5515 30.9834C65.5515 30.659 65.8274 30.4312 66.2769 30.4312C66.5197 30.4312 66.8355 30.495 67.0204 30.5949L66.9686 30.6921C66.7929 30.5949 66.4955 30.5376 66.2769 30.5376C65.8973 30.5376 65.6671 30.7225 65.6671 30.9806C65.6671 31.2661 65.9856 31.363 66.3676 31.4571C66.7687 31.5574 67.1115 31.6754 67.1115 32.0338Z"
      stroke="#03023E"
      strokeWidth="0.0852631"
      stroke-miterlimit="10"
    />
    <path
      d="M69.0434 31.7546C69.0434 31.3477 68.7065 31.023 68.29 31.023C68.0264 31.023 67.8081 31.111 67.6557 31.2597V32.2583C67.8016 32.4039 68.0237 32.4888 68.29 32.4888C68.7065 32.4888 69.0434 32.1645 69.0434 31.7546ZM69.1526 31.7546C69.1526 32.2249 68.7699 32.5953 68.2996 32.5953C68.0353 32.5953 67.8139 32.5161 67.6557 32.3889V33.1143H67.5469V30.9469H67.6557V31.1352C67.8081 31.0019 68.0472 30.9169 68.2996 30.9169C68.7699 30.9169 69.1526 31.287 69.1526 31.7546Z"
      fill="#03023E"
    />
    <path
      d="M69.0434 31.7546C69.0434 31.3477 68.7065 31.023 68.29 31.023C68.0264 31.023 67.8081 31.111 67.6557 31.2597V32.2583C67.8016 32.4039 68.0237 32.4888 68.29 32.4888C68.7065 32.4888 69.0434 32.1645 69.0434 31.7546ZM69.1526 31.7546C69.1526 32.2249 68.7699 32.5953 68.2996 32.5953C68.0353 32.5953 67.8139 32.5161 67.6557 32.3889V33.1143H67.5469V30.9469H67.6557V31.1352C67.8081 31.0019 68.0472 30.9169 68.2996 30.9169C68.7699 30.9169 69.1526 31.287 69.1526 31.7546Z"
      stroke="#03023E"
      strokeWidth="0.0852631"
      stroke-miterlimit="10"
    />
    <path
      d="M69.5813 31.706H70.9806C70.9595 31.3052 70.7071 31.0198 70.3009 31.0198C69.891 31.0198 69.5997 31.3206 69.5813 31.706ZM71.0867 31.8032H69.5813C69.6055 32.2039 69.9271 32.489 70.3067 32.489C70.5526 32.489 70.7896 32.398 70.9353 32.2128L71.0199 32.2796C70.8681 32.471 70.6072 32.5951 70.3009 32.5951C69.8088 32.5951 69.4688 32.2189 69.4688 31.7575C69.4688 31.2933 69.8088 30.9168 70.3009 30.9168C70.7866 30.9168 71.0867 31.2688 71.0867 31.7667V31.8032Z"
      fill="#03023E"
    />
    <path
      d="M69.5813 31.706H70.9806C70.9595 31.3052 70.7071 31.0198 70.3009 31.0198C69.891 31.0198 69.5997 31.3206 69.5813 31.706ZM71.0867 31.8032H69.5813C69.6055 32.2039 69.9271 32.489 70.3067 32.489C70.5526 32.489 70.7896 32.398 70.9353 32.2128L71.0199 32.2796C70.8681 32.471 70.6072 32.5951 70.3009 32.5951C69.8088 32.5951 69.4688 32.2189 69.4688 31.7575C69.4688 31.2933 69.8088 30.9168 70.3009 30.9168C70.7866 30.9168 71.0867 31.2688 71.0867 31.7667V31.8032Z"
      stroke="#03023E"
      strokeWidth="0.0852631"
      stroke-miterlimit="10"
    />
    <path
      d="M71.5129 31.706H72.9123C72.8911 31.3052 72.6388 31.0198 72.2326 31.0198C71.8226 31.0198 71.5314 31.3206 71.5129 31.706ZM73.0183 31.8032H71.5129C71.5372 32.2039 71.8588 32.489 72.2384 32.489C72.4843 32.489 72.7213 32.398 72.8669 32.2128L72.9515 32.2796C72.7997 32.471 72.5388 32.5951 72.2326 32.5951C71.7404 32.5951 71.4004 32.2189 71.4004 31.7575C71.4004 31.2933 71.7404 30.9168 72.2326 30.9168C72.7182 30.9168 73.0183 31.2688 73.0183 31.7667V31.8032Z"
      fill="#03023E"
    />
    <path
      d="M71.5129 31.706H72.9123C72.8911 31.3052 72.6388 31.0198 72.2326 31.0198C71.8226 31.0198 71.5314 31.3206 71.5129 31.706ZM73.0183 31.8032H71.5129C71.5372 32.2039 71.8588 32.489 72.2384 32.489C72.4843 32.489 72.7213 32.398 72.8669 32.2128L72.9515 32.2796C72.7997 32.471 72.5388 32.5951 72.2326 32.5951C71.7404 32.5951 71.4004 32.2189 71.4004 31.7575C71.4004 31.2933 71.7404 30.9168 72.2326 30.9168C72.7182 30.9168 73.0183 31.2688 73.0183 31.7667V31.8032Z"
      stroke="#03023E"
      strokeWidth="0.0852631"
      stroke-miterlimit="10"
    />
    <path
      d="M74.8316 32.2524V31.2534C74.6829 31.1112 74.4616 31.0232 74.1942 31.0232C73.7815 31.0232 73.4446 31.3475 73.4446 31.7575C73.4446 32.1644 73.7815 32.489 74.1942 32.489C74.4555 32.489 74.6799 32.401 74.8316 32.2524ZM74.9411 30.2947V32.5832H74.8316V32.3796C74.6799 32.5133 74.4401 32.5951 74.1884 32.5951C73.7178 32.5951 73.332 32.2247 73.332 31.7575C73.332 31.2868 73.7178 30.9168 74.1884 30.9168C74.449 30.9168 74.671 30.999 74.8316 31.1262V30.2947H74.9411Z"
      fill="#03023E"
    />
    <path
      d="M74.8316 32.2524V31.2534C74.6829 31.1112 74.4616 31.0232 74.1942 31.0232C73.7815 31.0232 73.4446 31.3475 73.4446 31.7575C73.4446 32.1644 73.7815 32.489 74.1942 32.489C74.4555 32.489 74.6799 32.401 74.8316 32.2524ZM74.9411 30.2947V32.5832H74.8316V32.3796C74.6799 32.5133 74.4401 32.5951 74.1884 32.5951C73.7178 32.5951 73.332 32.2247 73.332 31.7575C73.332 31.2868 73.7178 30.9168 74.1884 30.9168C74.449 30.9168 74.671 30.999 74.8316 31.1262V30.2947H74.9411Z"
      stroke="#03023E"
      strokeWidth="0.0852631"
      stroke-miterlimit="10"
    />
    <path
      d="M75.5096 32.5375C75.5096 32.8199 75.3367 32.9502 75.2057 32.9594L75.1846 32.9018C75.2814 32.8868 75.4155 32.7803 75.4155 32.5924C75.3698 32.5924 75.3302 32.5529 75.3302 32.5044C75.3302 32.4557 75.3759 32.4161 75.4155 32.4161C75.47 32.4161 75.5096 32.4557 75.5096 32.5375Z"
      fill="#03023E"
    />
    <path
      d="M75.5096 32.5375C75.5096 32.8199 75.3367 32.9502 75.2057 32.9594L75.1846 32.9018C75.2814 32.8868 75.4155 32.7803 75.4155 32.5924C75.3698 32.5924 75.3302 32.5529 75.3302 32.5044C75.3302 32.4557 75.3759 32.4161 75.4155 32.4161C75.47 32.4161 75.5096 32.4557 75.5096 32.5375Z"
      stroke="#03023E"
      strokeWidth="0.0852631"
      stroke-miterlimit="10"
    />
    <path
      d="M77.096 30.9378C77.096 31.1503 77.2144 31.284 77.3934 31.4661C77.8364 31.3144 77.9371 31.1261 77.9371 30.932C77.9371 30.7318 77.803 30.5405 77.5029 30.5405C77.2536 30.5405 77.096 30.7407 77.096 30.9378ZM78.052 32.2403L77.3661 31.5783C77.0319 31.7059 76.9105 31.873 76.9105 32.0674C76.9105 32.2765 77.0841 32.4889 77.5176 32.4889C77.7184 32.4889 77.9002 32.3829 78.052 32.2403ZM78.5861 31.7148C78.5226 31.8181 78.3828 32.0428 78.1918 32.2403L78.4831 32.5193L78.4132 32.5889L78.1219 32.3102C77.9517 32.4675 77.7488 32.5923 77.5176 32.5923C77.0077 32.5923 76.7959 32.3372 76.7959 32.0701C76.7959 31.8334 76.9262 31.6452 77.2932 31.5026C77.1018 31.3113 76.993 31.1595 76.993 30.9348C76.993 30.6831 77.196 30.4433 77.5029 30.4433C77.8399 30.4433 78.0401 30.6708 78.0401 30.9198C78.0401 31.1203 77.9517 31.3751 77.4691 31.5391L78.1219 32.1704C78.2982 31.9944 78.4316 31.7789 78.5015 31.6725L78.5861 31.7148Z"
      fill="#03023E"
    />
    <path
      d="M77.096 30.9378C77.096 31.1503 77.2144 31.284 77.3934 31.4661C77.8364 31.3144 77.9371 31.1261 77.9371 30.932C77.9371 30.7318 77.803 30.5405 77.5029 30.5405C77.2536 30.5405 77.096 30.7407 77.096 30.9378ZM78.052 32.2403L77.3661 31.5783C77.0319 31.7059 76.9105 31.873 76.9105 32.0674C76.9105 32.2765 77.0841 32.4889 77.5176 32.4889C77.7184 32.4889 77.9002 32.3829 78.052 32.2403ZM78.5861 31.7148C78.5226 31.8181 78.3828 32.0428 78.1918 32.2403L78.4831 32.5193L78.4132 32.5889L78.1219 32.3102C77.9517 32.4675 77.7488 32.5923 77.5176 32.5923C77.0077 32.5923 76.7959 32.3372 76.7959 32.0701C76.7959 31.8334 76.9262 31.6452 77.2932 31.5026C77.1018 31.3113 76.993 31.1595 76.993 30.9348C76.993 30.6831 77.196 30.4433 77.5029 30.4433C77.8399 30.4433 78.0401 30.6708 78.0401 30.9198C78.0401 31.1203 77.9517 31.3751 77.4691 31.5391L78.1219 32.1704C78.2982 31.9944 78.4316 31.7789 78.5015 31.6725L78.5861 31.7148Z"
      stroke="#03023E"
      strokeWidth="0.0852631"
      stroke-miterlimit="10"
    />
    <path
      d="M81.5034 30.5494H80.7234V32.5831H80.6109V30.5494H79.834V30.4433H81.5034V30.5494Z"
      fill="#03023E"
    />
    <path
      d="M81.5034 30.5494H80.7234V32.5831H80.6109V30.5494H79.834V30.4433H81.5034V30.5494Z"
      stroke="#03023E"
      strokeWidth="0.0852631"
      stroke-miterlimit="10"
    />
    <path
      d="M81.9294 31.3388C82.0236 31.0868 82.218 30.9197 82.485 30.9169C82.5734 30.9169 82.6702 30.9377 82.7674 30.9865L82.7401 31.0926C82.646 31.0476 82.5549 31.0319 82.4762 31.0319C82.1515 31.0319 81.9294 31.3354 81.9294 31.7242V32.583H81.8203V30.9469H81.9294V31.3388Z"
      fill="#03023E"
    />
    <path
      d="M81.9294 31.3388C82.0236 31.0868 82.218 30.9197 82.485 30.9169C82.5734 30.9169 82.6702 30.9377 82.7674 30.9865L82.7401 31.0926C82.646 31.0476 82.5549 31.0319 82.4762 31.0319C82.1515 31.0319 81.9294 31.3354 81.9294 31.7242V32.583H81.8203V30.9469H81.9294V31.3388Z"
      stroke="#03023E"
      strokeWidth="0.0852631"
      stroke-miterlimit="10"
    />
    <path
      d="M84.5779 30.947V32.5831H84.4687V32.3675C84.3108 32.5132 84.0714 32.5954 83.801 32.5954C83.4033 32.5954 83.0967 32.3495 83.0967 31.873V30.947H83.2034V31.873C83.2034 32.2734 83.4705 32.4889 83.8102 32.4889C84.0864 32.4889 84.2989 32.4071 84.4687 32.2615V30.947H84.5779Z"
      fill="#03023E"
    />
    <path
      d="M84.5779 30.947V32.5831H84.4687V32.3675C84.3108 32.5132 84.0714 32.5954 83.801 32.5954C83.4033 32.5954 83.0967 32.3495 83.0967 31.873V30.947H83.2034V31.873C83.2034 32.2734 83.4705 32.4889 83.8102 32.4889C84.0864 32.4889 84.2989 32.4071 84.4687 32.2615V30.947H84.5779Z"
      stroke="#03023E"
      strokeWidth="0.0852631"
      stroke-miterlimit="10"
    />
    <path
      d="M85.0368 32.3554C85.2162 32.4253 85.4341 32.4918 85.6711 32.4918C86.0691 32.4918 86.2083 32.3162 86.2083 32.1341C86.2083 31.9304 85.9685 31.8486 85.6469 31.7817C85.2854 31.7091 85.0248 31.6027 85.0248 31.3476C85.0248 31.099 85.2827 30.9168 85.6196 30.9168C85.8263 30.9168 86.0265 30.9591 86.2178 31.0413L86.181 31.132C86.0081 31.0533 85.8168 31.0198 85.6196 31.0198C85.3437 31.0198 85.1309 31.1563 85.1309 31.3476C85.1309 31.5331 85.3311 31.6119 85.6711 31.6787C86.0507 31.7517 86.3147 31.8575 86.3147 32.131C86.3147 32.3704 86.1391 32.5952 85.6681 32.5952C85.4133 32.5952 85.1824 32.5252 84.9941 32.4465L85.0368 32.3554Z"
      fill="#03023E"
    />
    <path
      d="M85.0368 32.3554C85.2162 32.4253 85.4341 32.4918 85.6711 32.4918C86.0691 32.4918 86.2083 32.3162 86.2083 32.1341C86.2083 31.9304 85.9685 31.8486 85.6469 31.7817C85.2854 31.7091 85.0248 31.6027 85.0248 31.3476C85.0248 31.099 85.2827 30.9168 85.6196 30.9168C85.8263 30.9168 86.0265 30.9591 86.2178 31.0413L86.181 31.132C86.0081 31.0533 85.8168 31.0198 85.6196 31.0198C85.3437 31.0198 85.1309 31.1563 85.1309 31.3476C85.1309 31.5331 85.3311 31.6119 85.6711 31.6787C86.0507 31.7517 86.3147 31.8575 86.3147 32.131C86.3147 32.3704 86.1391 32.5952 85.6681 32.5952C85.4133 32.5952 85.1824 32.5252 84.9941 32.4465L85.0368 32.3554Z"
      stroke="#03023E"
      strokeWidth="0.0852631"
      stroke-miterlimit="10"
    />
    <path
      d="M86.9176 31.0474V32.061C86.9176 32.3704 87.0663 32.4891 87.2787 32.4891C87.4121 32.4891 87.4943 32.4737 87.5488 32.4587V32.559C87.4909 32.574 87.3937 32.5951 87.2576 32.5951C87.0086 32.5951 86.805 32.4345 86.805 32.1217V31.0474H86.5049V30.9472H86.805V30.2947H86.9176V30.9472H87.5546V31.0474H86.9176Z"
      fill="#03023E"
    />
    <path
      d="M86.9176 31.0474V32.061C86.9176 32.3704 87.0663 32.4891 87.2787 32.4891C87.4121 32.4891 87.4943 32.4737 87.5488 32.4587V32.559C87.4909 32.574 87.3937 32.5951 87.2576 32.5951C87.0086 32.5951 86.805 32.4345 86.805 32.1217V31.0474H86.5049V30.9472H86.805V30.2947H86.9176V30.9472H87.5546V31.0474H86.9176Z"
      stroke="#03023E"
      strokeWidth="0.0852631"
      stroke-miterlimit="10"
    />
  </g>
</svg>
